<?xml version="1.0" standalone="no"?>
<!DOCTYPE svg PUBLIC "-//W3C//DTD SVG 20010904//EN"
 "http://www.w3.org/TR/2001/REC-SVG-20010904/DTD/svg10.dtd">
<svg version="1.0" xmlns="http://www.w3.org/2000/svg"
 width="100px" height="100px" viewBox="0 0 128.000000 128.000000" 
 preserveAspectRatio="xMidYMid meet">

<g transform="translate(0.000000,128.000000) scale(0.100000,-0.100000)"
fill="blue" stroke="none">
<path d="M560 1259 c-113 -22 -220 -108 -274 -219 -27 -57 -31 -77 -34 -168
-4 -99 -5 -103 -30 -116 -36 -19 -78 -65 -91 -99 -16 -43 -14 -97 4 -97 10 0
15 10 15 33 0 45 29 98 69 124 34 23 35 23 421 23 386 0 387 0 421 -23 64 -43
69 -65 69 -321 0 -208 -2 -233 -20 -271 -11 -22 -34 -49 -52 -60 -31 -19 -52
-20 -418 -20 -360 0 -387 1 -416 19 -60 36 -68 64 -74 236 -6 201 -24 207 -28
10 -2 -114 1 -154 13 -187 19 -50 61 -88 113 -103 59 -16 747 -13 795 4 50 18
76 42 98 91 16 35 19 68 19 277 0 143 -4 248 -11 265 -13 34 -55 80 -91 99
-25 13 -26 17 -30 116 -3 91 -7 111 -34 168 -55 115 -161 197 -283 220 -62 11
-88 11 -151 -1z m214 -49 c74 -28 154 -102 191 -177 25 -50 30 -72 33 -162 4
-95 3 -103 -13 -98 -9 4 -29 7 -45 7 l-28 0 -4 88 c-4 99 -20 140 -76 198
-102 105 -279 106 -384 2 -54 -55 -72 -101 -76 -200 l-4 -88 -28 0 c-16 0 -36
-3 -45 -7 -16 -5 -17 3 -13 98 3 89 8 112 32 159 88 175 276 248 460 180z
m-24 -120 c44 -22 97 -80 116 -126 8 -19 14 -68 14 -114 l0 -80 -240 0 -240 0
0 80 c0 91 13 130 60 184 73 83 192 106 290 56z"/>
<path d="M124 526 c-7 -20 2 -46 16 -46 13 0 13 47 0 55 -6 3 -13 -1 -16 -9z"/>
<path d="M564 496 c-27 -27 -34 -42 -34 -73 0 -21 7 -49 16 -61 14 -20 14 -31
3 -89 -12 -61 -12 -66 6 -79 25 -19 145 -19 170 0 18 13 18 18 6 79 -11 58
-11 69 3 89 9 12 16 40 16 61 0 31 -7 46 -34 73 -28 28 -42 34 -76 34 -34 0
-48 -6 -76 -34z m131 -21 c30 -29 33 -73 6 -106 -17 -21 -17 -27 -5 -82 8 -32
12 -63 8 -68 -7 -12 -121 -12 -129 1 -3 5 1 36 8 68 13 54 12 61 -5 82 -41 50
-3 130 62 130 19 0 40 -9 55 -25z"/>
</g>
</svg>
